<svg id="Слой_1" data-name="Слой 1" xmlns="http://www.w3.org/2000/svg" xmlns:xlink="http://www.w3.org/1999/xlink" viewBox="0 0 63.36 23.96"><defs><style>.cls-1,.cls-10,.cls-5{fill:#fff;}.cls-1,.cls-2,.cls-3,.cls-4,.cls-5,.cls-6,.cls-7,.cls-8,.cls-9{stroke-miterlimit:10;}.cls-1{stroke:url(#Безымянный_градиент_7);}.cls-2,.cls-7{fill:#ff2a36;}.cls-2{stroke:url(#Безымянный_градиент_7-2);}.cls-3{stroke:url(#Безымянный_градиент_7-3);}.cls-4{stroke:url(#Безымянный_градиент_7-4);}.cls-5{stroke:url(#Безымянный_градиент_4);}.cls-6{stroke:url(#Безымянный_градиент_4-2);}.cls-7{stroke:url(#Безымянный_градиент_4-3);}.cls-8{stroke:url(#Безымянный_градиент_4-4);}.cls-9{stroke:#000;}</style><linearGradient id="Безымянный_градиент_7" x1="8.74" y1="35.89" x2="24.76" y2="35.89" gradientUnits="userSpaceOnUse"><stop offset="0"/><stop offset="1" stop-color="#ff2a36"/></linearGradient><linearGradient id="Безымянный_градиент_7-2" x1="2.26" y1="34.41" x2="30.71" y2="34.41" xlink:href="#Безымянный_градиент_7"/><linearGradient id="Безымянный_градиент_7-3" x1="1.37" y1="37.62" x2="32.14" y2="37.62" xlink:href="#Безымянный_градиент_7"/><linearGradient id="Безымянный_градиент_7-4" x1="12.64" y1="35.15" x2="22.61" y2="35.15" xlink:href="#Безымянный_градиент_7"/><linearGradient id="Безымянный_градиент_4" x1="41.35" y1="35.89" x2="57.37" y2="35.89" gradientUnits="userSpaceOnUse"><stop offset="0" stop-color="#ff2a36"/><stop offset="1"/></linearGradient><linearGradient id="Безымянный_градиент_4-2" x1="43.5" y1="35.15" x2="53.47" y2="35.15" xlink:href="#Безымянный_градиент_4"/><linearGradient id="Безымянный_градиент_4-3" x1="35.4" y1="34.41" x2="63.84" y2="34.41" xlink:href="#Безымянный_градиент_4"/><linearGradient id="Безымянный_градиент_4-4" x1="33.97" y1="37.61" x2="64.73" y2="37.61" xlink:href="#Безымянный_градиент_4"/></defs><title>logo</title><path class="cls-1" d="M9.6,29.62a10.5,10.5,0,0,0-.15,4.79,10.05,10.05,0,0,0,3.35,5.72,8.2,8.2,0,0,0,6.33,2.22,7.88,7.88,0,0,0,5-2.88L22.72,38l-6.66-4.79Z" transform="translate(-1.37 -23.29)"/><path class="cls-2" d="M4.6,25.89,23.93,38.22c.84.81,1.45,1.48,1.86,2a3.8,3.8,0,0,0,1.45,1.21,3,3,0,0,0,1.1.21c-1.95-2.6-2.91-3.92-2.88-3.94s1.37,1.64,4,5l-3.79-.87A17.23,17.23,0,0,0,23.51,39,20.62,20.62,0,0,0,22,37.56c-1.58-1.33-8.52-5.82-18.11-11.63Z" transform="translate(-1.37 -23.29)"/><path class="cls-3" d="M21.11,46.71A11.51,11.51,0,0,1,26,45.35a11.73,11.73,0,0,1,5.32,1l-.58-1.64a12.24,12.24,0,0,0-9.07.25A19.48,19.48,0,0,1,11.48,42a20.39,20.39,0,0,1-8.79-12.4L8,31.73,2.05,28.86a22.67,22.67,0,0,0,1.56,5,19.18,19.18,0,0,0,4.78,6.9,18.77,18.77,0,0,0,6.16,3.66c.58.2,1.35.42,3,1S20.28,46.39,21.11,46.71Z" transform="translate(-1.37 -23.29)"/><path class="cls-4" d="M13.48,31.78a5.17,5.17,0,0,0,8.32,5.65Z" transform="translate(-1.37 -23.29)"/><path class="cls-5" d="M56.51,29.62a10.5,10.5,0,0,1,.15,4.79,10.05,10.05,0,0,1-3.35,5.72A8.25,8.25,0,0,1,47,42.35a7.86,7.86,0,0,1-5-2.88L43.38,38l6.67-4.79Z" transform="translate(-1.37 -23.29)"/><path class="cls-6" d="M52.63,31.77a5.17,5.17,0,0,1-8.33,5.66Z" transform="translate(-1.37 -23.29)"/><path class="cls-7" d="M61.51,25.89,42.18,38.21c-.84.81-1.45,1.48-1.86,1.95a3.75,3.75,0,0,1-1.46,1.21,2.79,2.79,0,0,1-1.09.21c1.95-2.6,2.9-3.91,2.87-3.93s-1.36,1.63-4,5l3.8-.86A16.81,16.81,0,0,1,42.6,39a19.29,19.29,0,0,1,1.5-1.42c1.58-1.33,8.53-5.82,18.12-11.63Z" transform="translate(-1.37 -23.29)"/><path class="cls-8" d="M45,46.7a11.63,11.63,0,0,0-10.18-.37l.57-1.64a12.27,12.27,0,0,1,9.08.25A19.7,19.7,0,0,0,54.63,42a20.47,20.47,0,0,0,8.79-12.4l-5.27,2.09,5.91-2.87a22.83,22.83,0,0,1-1.56,5,19.23,19.23,0,0,1-4.79,6.9,18.58,18.58,0,0,1-6.15,3.66c-.58.2-1.36.42-3,1S45.83,46.39,45,46.7Z" transform="translate(-1.37 -23.29)"/><path class="cls-9" d="M6.09,23.74,31,35.78c.33,1.22.66,2.44,1,3.66Z" transform="translate(-1.37 -23.29)"/><path class="cls-9" d="M60.71,23.74l-24.89,12c-.33,1.22-.67,2.44-1,3.66Z" transform="translate(-1.37 -23.29)"/><ellipse class="cls-10" cx="14.59" cy="33.82" rx="0.25" ry="0.47" transform="translate(-23.59 9.22) rotate(-64.63)"/><ellipse class="cls-10" cx="49.58" cy="11.05" rx="0.43" ry="0.23"/><ellipse class="cls-10" cx="14.42" cy="34.66" rx="0.38" ry="0.2" transform="translate(-16.77 -11.44) rotate(-30)"/><ellipse class="cls-10" cx="50.21" cy="11.61" rx="0.2" ry="0.37"/></svg>