<svg id="Слой_1" data-name="Слой 1" xmlns="http://www.w3.org/2000/svg" xmlns:xlink="http://www.w3.org/1999/xlink" viewBox="0 0 63.36 23.96"><defs><style>.cls-1,.cls-10,.cls-5{fill:#fff;}.cls-1,.cls-2,.cls-3,.cls-4,.cls-5,.cls-6,.cls-7,.cls-8,.cls-9{stroke-miterlimit:10;}.cls-1{stroke:url(#Безымянный_градиент_7);}.cls-2{stroke:url(#Безымянный_градиент_7-2);}.cls-3{stroke:url(#Безымянный_градиент_7-3);}.cls-4,.cls-7{fill:#ff2a36;}.cls-4{stroke:url(#Безымянный_градиент_7-4);}.cls-5{stroke:url(#Безымянный_градиент_4);}.cls-6{stroke:url(#Безымянный_градиент_4-2);}.cls-7{stroke:url(#Безымянный_градиент_4-3);}.cls-8{stroke:url(#Безымянный_градиент_4-4);}.cls-9{stroke:#000;}.cls-11{fill:#00d6c1;}</style><linearGradient id="Безымянный_градиент_7" x1="8.76" y1="15.07" x2="24.78" y2="15.07" gradientUnits="userSpaceOnUse"><stop offset="0"/><stop offset="1" stop-color="#ff2a36"/></linearGradient><linearGradient id="Безымянный_градиент_7-2" x1="12.66" y1="14.33" x2="22.63" y2="14.33" xlink:href="#Безымянный_градиент_7"/><linearGradient id="Безымянный_градиент_7-3" x1="1.4" y1="16.8" x2="32.16" y2="16.8" xlink:href="#Безымянный_градиент_7"/><linearGradient id="Безымянный_градиент_7-4" x1="2.29" y1="13.59" x2="30.73" y2="13.59" xlink:href="#Безымянный_градиент_7"/><linearGradient id="Безымянный_градиент_4" x1="41.38" y1="15.07" x2="57.39" y2="15.07" gradientUnits="userSpaceOnUse"><stop offset="0" stop-color="#ff2a36"/><stop offset="1"/></linearGradient><linearGradient id="Безымянный_градиент_4-2" x1="43.53" y1="14.33" x2="53.49" y2="14.33" xlink:href="#Безымянный_градиент_4"/><linearGradient id="Безымянный_градиент_4-3" x1="35.43" y1="13.59" x2="63.87" y2="13.59" xlink:href="#Безымянный_градиент_4"/><linearGradient id="Безымянный_градиент_4-4" x1="33.99" y1="16.8" x2="64.76" y2="16.8" xlink:href="#Безымянный_градиент_4"/></defs><title>logo</title><path class="cls-1" d="M9.62,8.8a10.5,10.5,0,0,0-.15,4.79,10.05,10.05,0,0,0,3.35,5.72,8.24,8.24,0,0,0,6.34,2.22,7.77,7.77,0,0,0,5-2.88l-1.37-1.51-6.66-4.79Z" transform="translate(-1.4 -2.48)"/><path class="cls-2" d="M13.5,11a5.18,5.18,0,0,0,8.33,5.66Z" transform="translate(-1.4 -2.48)"/><path class="cls-3" d="M21.13,25.89A11.67,11.67,0,0,1,26,24.53a11.49,11.49,0,0,1,5.31,1l-.57-1.64a12,12,0,0,0-4.36-.75,12.23,12.23,0,0,0-4.71,1A19.6,19.6,0,0,1,11.5,21.23,20.48,20.48,0,0,1,2.71,8.82L8,10.92,2.08,8a22.56,22.56,0,0,0,1.55,5A19.15,19.15,0,0,0,8.42,20a18.41,18.41,0,0,0,6.15,3.66c.58.2,1.36.42,3,1S20.31,25.57,21.13,25.89Z" transform="translate(-1.4 -2.48)"/><path class="cls-4" d="M4.62,5.07,24,17.4c.84.81,1.46,1.48,1.87,2a3.73,3.73,0,0,0,1.45,1.21,3,3,0,0,0,1.09.21q-2.91-3.9-2.87-3.94s1.36,1.64,4,5L25.67,21a17.22,17.22,0,0,0-2.13-2.78A19.54,19.54,0,0,0,22,16.74C20.45,15.42,13.5,10.92,3.92,5.11Z" transform="translate(-1.4 -2.48)"/><path class="cls-5" d="M56.54,8.8a10.39,10.39,0,0,1,.14,4.79,10.08,10.08,0,0,1-3.34,5.72A8.24,8.24,0,0,1,47,21.53a7.88,7.88,0,0,1-5-2.88l1.38-1.51,6.66-4.79Z" transform="translate(-1.4 -2.48)"/><path class="cls-6" d="M52.65,11a5.17,5.17,0,0,1-8.32,5.66Z" transform="translate(-1.4 -2.48)"/><path class="cls-7" d="M61.53,5.07,42.2,17.4c-.83.81-1.45,1.48-1.86,2a3.8,3.8,0,0,1-1.45,1.21,3,3,0,0,1-1.09.21c1.94-2.6,2.9-3.92,2.87-3.94s-1.36,1.64-4,5L40.48,21a17.84,17.84,0,0,1,2.14-2.79,20.62,20.62,0,0,1,1.51-1.42c1.58-1.33,8.53-5.82,18.11-11.63Z" transform="translate(-1.4 -2.48)"/><path class="cls-8" d="M45,25.89a11.59,11.59,0,0,0-10.18-.38l.57-1.64a12.24,12.24,0,0,1,9.07.25,19.63,19.63,0,0,0,10.17-2.9,20.36,20.36,0,0,0,8.78-12.4l-5.27,2.09L64.08,8a22.67,22.67,0,0,1-1.56,5A19,19,0,0,1,57.74,20a18.69,18.69,0,0,1-6.15,3.66c-.59.2-1.36.42-3,1S45.85,25.57,45,25.89Z" transform="translate(-1.4 -2.48)"/><path class="cls-9" d="M6.12,2.93,31,15c.34,1.22.67,2.43,1,3.65Z" transform="translate(-1.4 -2.48)"/><path class="cls-9" d="M60.73,2.93,35.85,15c-.34,1.22-.67,2.43-1,3.65Z" transform="translate(-1.4 -2.48)"/><ellipse class="cls-10" cx="14.61" cy="13" rx="0.25" ry="0.47" transform="translate(-4.79 18.16) rotate(-64.63)"/><ellipse class="cls-10" cx="49.58" cy="11.05" rx="0.43" ry="0.23"/><ellipse class="cls-10" cx="14.44" cy="13.84" rx="0.38" ry="0.2" transform="translate(-6.39 6.6) rotate(-30)"/><ellipse class="cls-10" cx="50.21" cy="11.61" rx="0.2" ry="0.37"/><path class="cls-11" d="M52.7,21.39A17.38,17.38,0,0,1,45,23.06a8,8,0,0,0-5.48-.73l2.74-1.42A10.23,10.23,0,0,0,47,22.43c6.11.28,9.83-5.42,10-5.67a12,12,0,0,0,1.63-4.16l3.41-2.27C61.59,11.75,59.32,18.21,52.7,21.39Z" transform="translate(-1.4 -2.48)"/><path class="cls-11" d="M13.27,21.39A17.38,17.38,0,0,0,21,23.06a8,8,0,0,1,5.48-.73l-2.74-1.42a10.23,10.23,0,0,1-4.82,1.52c-6.1.28-9.83-5.42-10-5.67A12,12,0,0,1,7.32,12.6l-3.4-2.27C4.38,11.75,6.65,18.21,13.27,21.39Z" transform="translate(-1.4 -2.48)"/></svg>