<svg id="Слой_1" data-name="Слой 1" xmlns="http://www.w3.org/2000/svg" viewBox="0 0 90.47 187.29"><defs><style>.cls-1,.cls-2{fill:#262626;}.cls-2{stroke:#262626;}.cls-2,.cls-5{stroke-miterlimit:10;stroke-width:0.5px;}.cls-3{fill:#f5fff6;}.cls-4{fill:#6b6b6b;}.cls-5{stroke:#000;}.cls-6{fill:#ededed;}.cls-7{fill:#f6f7f5;}.cls-8{fill:#adadad;}</style></defs><title>phone</title><rect class="cls-1" y="60.38" width="0.72" height="5.39"/><polygon class="cls-1" points="0.72 60.38 0 60.38 0 65.77 0.72 65.77 0.72 60.38 0.72 60.38"/><rect class="cls-1" y="45.39" width="0.72" height="5.39"/><polygon class="cls-1" points="0.72 45.39 0 45.39 0 50.77 0.72 50.77 0.72 45.39 0.72 45.39"/><rect class="cls-2" x="59.14" y="0.25" width="16.5" height="1.92" rx="0.96"/><path class="cls-3" d="M14.38,186.29a13.07,13.07,0,0,1-13-13.08V14.76a13.06,13.06,0,0,1,13-13.07H76.44a13.06,13.06,0,0,1,13,13.07V173.21a13.07,13.07,0,0,1-13,13.08Z" transform="translate(0.01 0)"/><path d="M76.44,2.69a12,12,0,0,1,12,12.07V173.21a12.05,12.05,0,0,1-12,12.08H14.38a12.05,12.05,0,0,1-12-12.08V14.76a12,12,0,0,1,12-12.07H76.44m0-2H14.38a14.06,14.06,0,0,0-14,14.07V173.21a14.07,14.07,0,0,0,14,14.08H76.44a14.07,14.07,0,0,0,14-14.08V14.76A14.06,14.06,0,0,0,76.44.69Z" transform="translate(0.01 0)"/><circle class="cls-4" cx="45.05" cy="10.06" r="1.27"/><path d="M45,9.16a.9.9,0,1,1-.9.9.9.9,0,0,1,.9-.9m0-.75a1.65,1.65,0,1,0,1.65,1.65A1.65,1.65,0,0,0,45,8.41Z" transform="translate(0.01 0)"/><circle class="cls-5" cx="32.89" cy="17.1" r="1.3"/><rect x="5.87" y="26.44" width="78.38" height="134.94"/><rect x="37.5" y="16.16" width="14.88" height="1.84" rx="0.92"/><path class="cls-6" d="M45.51,181.69a8.32,8.32,0,1,1,8.31-8.32A8.33,8.33,0,0,1,45.51,181.69Z" transform="translate(0.01 0)"/><path d="M45.51,165.55a7.82,7.82,0,1,1-7.82,7.82,7.82,7.82,0,0,1,7.82-7.82m0-1a8.82,8.82,0,1,0,8.81,8.82,8.83,8.83,0,0,0-8.81-8.82Z" transform="translate(0.01 0)"/><path class="cls-7" d="M45.51,181.24a7.87,7.87,0,1,1,7.86-7.87A7.88,7.88,0,0,1,45.51,181.24Z" transform="translate(0.01 0)"/><path class="cls-8" d="M45.51,166a7.37,7.37,0,1,1-7.37,7.37A7.36,7.36,0,0,1,45.51,166m0-1a8.37,8.37,0,1,0,8.36,8.37A8.37,8.37,0,0,0,45.51,165Z" transform="translate(0.01 0)"/></svg>